# xmcd
#
# Track frame offsets: 
#        150
#        14040
#        27952
#        45359
#        62425
#        78384
#        93104
#        106707
#        120909
#        139715
#        155333
#        173784
#
# Disc length: 2473 seconds
#
# Revision: 3
# Processed by: cddbd v1.5.2PL0 Copyright (c) Steve Scherf et al.
# Submitted via: ExactAudioCopy v1.0b3
#
DISCID=8209a70c
DTITLE=Thompson Square - Thompson Square
DYEAR=2010
DGENRE=Country
TTITLE0=I Got You
TTITLE1=Are You Gonna Kiss Me or Not
TTITLE2=Glass
TTITLE3=My Kind of Crazy
TTITLE4=Getaway Car
TTITLE5=All the Way
TTITLE6=Let's Fight
TTITLE7=Who Loves Who More
TTITLE8=If It Takes All Night
TTITLE9=As Bad as It Gets
TTITLE10=I Don't Wanna Miss You
TTITLE11=One of Those Days
EXTD=Thompson Square\n2010
EXTT0=
EXTT1=
EXTT2=
EXTT3=
EXTT4=
EXTT5=
EXTT6=
EXTT7=
EXTT8=
EXTT9=
EXTT10=
EXTT11=
PLAYORDER=
